<svg width="28" height="28" viewBox="0 0 28 28" fill="none" xmlns="http://www.w3.org/2000/svg">
<path d="M17.7612 18.0927L15.1793 23.5177C15.1305 23.6203 15.0574 23.7094 14.9664 23.7774C14.8754 23.8454 14.7692 23.8903 14.657 23.9081C14.5448 23.9259 14.4299 23.9161 14.3224 23.8796C14.2148 23.8431 14.1177 23.7809 14.0395 23.6985L9.90717 19.3364C9.79647 19.2197 9.64898 19.1447 9.4895 19.124L3.5325 18.3447C3.41983 18.33 3.31242 18.2882 3.21956 18.2227C3.12669 18.1572 3.05115 18.0701 2.99946 17.969C2.94778 17.8678 2.9215 17.7555 2.9229 17.6419C2.92431 17.5283 2.95334 17.4167 3.0075 17.3169L5.87984 12.0389C5.95659 11.8978 5.98254 11.7347 5.95334 11.5769L4.85317 5.67002C4.83228 5.55822 4.83895 5.44301 4.8726 5.33436C4.90624 5.22571 4.96586 5.1269 5.04629 5.04647C5.12671 4.96604 5.22553 4.90643 5.33417 4.87278C5.44282 4.83913 5.55803 4.83246 5.66984 4.85336L11.5755 5.95352C11.7338 5.98301 11.8973 5.95705 12.0387 5.88002L17.3155 3.01002C17.4153 2.95564 17.5268 2.92635 17.6404 2.9247C17.754 2.92304 17.8663 2.94906 17.9676 3.00052C18.0689 3.05197 18.1561 3.12731 18.2218 3.22003C18.2875 3.31274 18.3296 3.42005 18.3445 3.53269L19.1238 9.49086C19.1448 9.64992 19.2198 9.79696 19.3362 9.90735L23.6983 14.0397C23.7808 14.1179 23.8429 14.215 23.8794 14.3225C23.9159 14.4301 23.9257 14.545 23.9079 14.6572C23.8901 14.7694 23.8453 14.8756 23.7772 14.9666C23.7092 15.0576 23.6201 15.1307 23.5175 15.1795L18.0925 17.7614C17.9473 17.8305 17.8303 17.9475 17.7612 18.0927ZM18.691 20.3409L20.3407 18.6912L25.2908 23.6402L23.64 25.291L18.691 20.3409Z" fill="#FF0000"/>
</svg>
