<svg width="24" height="24" viewBox="0 0 24 24" fill="none" xmlns="http://www.w3.org/2000/svg">
<path fill-rule="evenodd" clip-rule="evenodd" d="M20.16 12.1932C20.16 11.5905 20.1059 11.011 20.0055 10.4546H12V13.7425H16.5745C16.3775 14.8051 15.7786 15.7053 14.8784 16.308V18.4407H17.6254C19.2327 16.961 20.16 14.7819 20.16 12.1932Z" fill="#4285F4"/>
<path fill-rule="evenodd" clip-rule="evenodd" d="M12 20.5C14.295 20.5 16.2191 19.7389 17.6255 18.4407L14.8784 16.3079C14.1173 16.8179 13.1436 17.1193 12 17.1193C9.78612 17.1193 7.91226 15.6241 7.24385 13.615H4.40407V15.8173C5.80271 18.5952 8.67726 20.5 12 20.5Z" fill="#34A853"/>
<path fill-rule="evenodd" clip-rule="evenodd" d="M7.24384 13.6151C7.07384 13.1051 6.97725 12.5603 6.97725 12.0001C6.97725 11.4399 7.07384 10.8951 7.24384 10.3851V8.1828H4.40406C3.82838 9.3303 3.49997 10.6285 3.49997 12.0001C3.49997 13.3717 3.82838 14.6699 4.40406 15.8174L7.24384 13.6151Z" fill="#FBBC05"/>
<path fill-rule="evenodd" clip-rule="evenodd" d="M12 6.88075C13.2479 6.88075 14.3684 7.30961 15.2493 8.15189L17.6873 5.71393C16.2152 4.34234 14.2911 3.50006 12 3.50006C8.67726 3.50006 5.80271 5.40484 4.40407 8.1828L7.24385 10.3851C7.91226 8.37598 9.78612 6.88075 12 6.88075Z" fill="#EA4335"/>
</svg>
