<svg width="10" height="10" viewBox="0 0 10 10" fill="none" xmlns="http://www.w3.org/2000/svg">
<g clip-path="url(#clip0_202_369)">
<path d="M9.58332 1.66666V4.16666M9.58332 4.16666H7.08332M9.58332 4.16666L7.64999 2.34999C7.20218 1.90195 6.64817 1.57466 6.03965 1.39865C5.43114 1.22263 4.78795 1.20364 4.17011 1.34343C3.55227 1.48323 2.97991 1.77725 2.50643 2.19808C2.03296 2.61891 1.67381 3.15282 1.46249 3.74999M0.416656 8.33332V5.83332M0.416656 5.83332H2.91666M0.416656 5.83332L2.34999 7.64999C2.7978 8.09803 3.35181 8.42532 3.96033 8.60134C4.56884 8.77735 5.21203 8.79634 5.82987 8.65655C6.44771 8.51676 7.02007 8.22273 7.49355 7.8019C7.96702 7.38107 8.32617 6.84716 8.53749 6.24999" stroke="currentColor" stroke-linecap="round" stroke-linejoin="round"/>
</g>
<defs>
<clipPath id="clip0_202_369">
<rect width="10" height="10" fill="white"/>
</clipPath>
</defs>
</svg>
