<svg xmlns="http://www.w3.org/2000/svg" width="256" height="256" viewBox="0 0 256 256" fill="none"><g transform="translate(1.4065934065934016 1.4065934065934016) scale(2.81 2.81)"><path d="M 87 32.944 c -1.657 0 -3 -1.343 -3 -3 V 6 H 60.056 c -1.657 0 -3 -1.343 -3 -3 s 1.343 -3 3 -3 H 87 c 1.657 0 3 1.343 3 3 v 26.944 C 90 31.601 88.657 32.944 87 32.944 z" fill="currentColor" stroke-linecap="round"/><path d="M 33.112 59.888 c -0.768 0 -1.536 -0.293 -2.121 -0.879 c -1.172 -1.171 -1.172 -3.071 0 -4.242 L 84.879 0.879 c 1.172 -1.172 3.07 -1.172 4.242 0 c 1.172 1.171 1.172 3.071 0 4.242 L 35.233 59.009 C 34.648 59.595 33.88 59.888 33.112 59.888 z" fill="currentColor" stroke-linecap="round"/><path d="M 75.863 90 H 14.137 C 6.342 90 0 83.658 0 75.863 V 14.137 C 0 6.342 6.342 0 14.137 0 h 18.976 c 1.657 0 3 1.343 3 3 s -1.343 3 -3 3 H 14.137 C 9.65 6 6 9.65 6 14.137 v 61.727 C 6 80.35 9.65 84 14.137 84 h 61.727 C 80.35 84 84 80.35 84 75.863 V 56.888 c 0 -1.657 1.343 -3 3 -3 s 3 1.343 3 3 v 18.976 C 90 83.658 83.658 90 75.863 90 z" fill="currentColor" stroke-linecap="round"/></g></svg>
