<svg width="115" height="115" viewBox="0 0 115 115" fill="none" xmlns="http://www.w3.org/2000/svg">
<path d="M71.2441 23.8307C71.2441 23.8307 59.1788 39.1135 39.8741 29.9977C20.5693 20.882 1.26482 45.5484 17.8881 60.5631C34.5113 75.5779 18.2442 83.8284 29.5376 93.0303C42.3732 103.489 53.5481 82.2808 63.7366 87.107C86.2232 97.7585 102.882 93.5419 99.1284 81.2084C92.5394 59.5585 84.1137 58.15 90.5486 46.889C96.9835 35.6279 82.7818 12.2134 71.2441 23.8307Z" fill="#F5EFFF"/>
<path d="M50.6309 71.7825C50.6309 82.1601 59.0424 90.5716 69.42 90.5716C71.8365 90.5757 74.2309 90.1105 76.4701 89.2019C76.5162 89.2074 76.5625 89.2101 76.609 89.2101H84.8326C85.0972 89.2102 85.3593 89.1582 85.6039 89.057C85.8484 88.9558 86.0706 88.8074 86.2578 88.6202C86.4449 88.4331 86.5933 88.2109 86.6946 87.9664C86.7958 87.7218 86.8478 87.4597 86.8477 87.1951V78.8134C87.7507 76.5795 88.2131 74.192 88.2092 71.7825C88.2092 61.4049 79.7976 52.9933 69.42 52.9933C59.0424 52.9933 50.6309 61.4049 50.6309 71.7825Z" fill="#E0A2FF"/>
<path d="M76.9407 58.4641C76.9407 71.4833 66.388 82.036 53.3689 82.036C50.3372 82.0411 47.3334 81.4575 44.5243 80.3176C44.4664 80.3245 44.4083 80.3279 44.35 80.3279H34.033C33.701 80.3281 33.3721 80.2628 33.0654 80.1358C32.7586 80.0088 32.4798 79.8226 32.245 79.5878C32.0102 79.3531 31.824 79.0743 31.6971 78.7675C31.5701 78.4607 31.5048 78.1319 31.505 77.7999V67.2848C30.3721 64.4823 29.7921 61.4871 29.7969 58.4643C29.7969 45.4451 40.3495 34.8925 53.3687 34.8925C66.3879 34.8925 76.9407 45.445 76.9407 58.4641Z" fill="#9F8CFF"/>
<path d="M42.4372 63.2468C44.3239 63.2468 45.8534 61.7173 45.8534 59.8306C45.8534 57.9439 44.3239 56.4144 42.4372 56.4144C40.5505 56.4144 39.021 57.9439 39.021 59.8306C39.021 61.7173 40.5505 63.2468 42.4372 63.2468Z" fill="white"/>
<path d="M52.3439 63.2468C54.2306 63.2468 55.7601 61.7173 55.7601 59.8306C55.7601 57.9439 54.2306 56.4144 52.3439 56.4144C50.4572 56.4144 48.9277 57.9439 48.9277 59.8306C48.9277 61.7173 50.4572 63.2468 52.3439 63.2468Z" fill="white"/>
<path d="M62.5925 63.2468C64.4792 63.2468 66.0086 61.7173 66.0086 59.8306C66.0086 57.9439 64.4792 56.4144 62.5925 56.4144C60.7057 56.4144 59.1763 57.9439 59.1763 59.8306C59.1763 61.7173 60.7057 63.2468 62.5925 63.2468Z" fill="white"/>
<path d="M73.1829 47.1907C76.5789 47.1907 79.332 44.4376 79.332 41.0415C79.332 37.6454 76.5789 34.8923 73.1829 34.8923C69.7868 34.8923 67.0337 37.6454 67.0337 41.0415C67.0337 44.4376 69.7868 47.1907 73.1829 47.1907Z" fill="#9F8CFF" stroke="white" stroke-width="15" stroke-miterlimit="10"/>
<path d="M75.137 39.219C75.0559 38.9063 74.9106 38.6139 74.7102 38.3605C74.5335 38.1471 74.3041 37.9834 74.0448 37.8855C73.4853 37.6925 72.8772 37.6925 72.3176 37.8855C72.0587 37.9828 71.83 38.1466 71.6547 38.3605C71.4524 38.6127 71.3068 38.9055 71.2279 39.219C71.1201 39.6412 71.0697 40.0761 71.0781 40.5118V41.5481C71.0693 41.9849 71.1206 42.4208 71.2305 42.8436C71.3103 43.1596 71.4566 43.4549 71.6598 43.7097C71.8362 43.9253 72.0655 44.0916 72.3253 44.1923C72.8819 44.3921 73.4907 44.3921 74.0473 44.1923C74.3056 44.0914 74.5332 43.9251 74.7077 43.7097C74.9077 43.4536 75.0522 43.1586 75.1319 42.8436C75.2396 42.4204 75.29 41.9847 75.2817 41.5481H75.2869V40.5118C75.2952 40.0761 75.2448 39.6412 75.137 39.219ZM74.2099 41.703C74.2134 41.9796 74.1913 42.256 74.1439 42.5285C74.1118 42.7223 74.0456 42.9089 73.9484 43.0797C73.8734 43.2114 73.7624 43.3189 73.6283 43.3895C73.4906 43.4559 73.3392 43.4889 73.1864 43.4861C73.0336 43.4884 72.8823 43.4553 72.7444 43.3895C72.6086 43.3185 72.4951 43.2113 72.4166 43.0797C72.3173 42.9092 72.2485 42.7227 72.2134 42.5285C72.1615 42.2565 72.1377 41.9799 72.1423 41.703V40.3467C72.1379 40.0708 72.1609 39.7952 72.2109 39.5238C72.2443 39.3335 72.3123 39.151 72.4116 38.9853C72.4903 38.8587 72.6029 38.7566 72.7367 38.6907C72.8753 38.6304 73.0249 38.5993 73.1761 38.5993C73.3273 38.5993 73.4769 38.6304 73.6155 38.6907C73.7503 38.755 73.8634 38.8574 73.9406 38.9853C74.0398 39.1511 74.1078 39.3336 74.1413 39.5238C74.1914 39.7952 74.2144 40.0708 74.2098 40.3467V41.7031L74.2099 41.703Z" fill="white"/>
</svg>
