<svg width="28" height="28" viewBox="0 0 28 28" fill="none" xmlns="http://www.w3.org/2000/svg">
<path d="M20.5544 6.96269L22.2496 5.26752L23.8992 6.91719L22.2041 8.61235C23.6892 10.471 24.499 12.7789 24.501 15.158C24.503 17.537 23.6969 19.8463 22.215 21.7074C20.733 23.5685 18.6629 24.8712 16.3438 25.402C14.0247 25.9328 11.5941 25.6603 9.45005 24.6292C7.30605 23.598 5.57577 21.8694 4.54266 19.7263C3.50955 17.5832 3.23484 15.1529 3.76355 12.8333C4.29225 10.5137 5.59301 8.44241 7.45276 6.95872C9.31251 5.47503 11.621 4.66689 14.0001 4.66669C16.4792 4.66669 18.7577 5.52535 20.5544 6.96269ZM14.0001 23.3334C15.0725 23.3334 16.1345 23.1221 17.1253 22.7117C18.1162 22.3013 19.0164 21.6997 19.7748 20.9414C20.5331 20.183 21.1347 19.2828 21.5451 18.2919C21.9555 17.3011 22.1667 16.2391 22.1667 15.1667C22.1667 14.0942 21.9555 13.0323 21.5451 12.0414C21.1347 11.0506 20.5331 10.1503 19.7748 9.39198C19.0164 8.63364 18.1162 8.03208 17.1253 7.62167C16.1345 7.21126 15.0725 7.00002 14.0001 7.00002C11.8341 7.00002 9.75692 7.86044 8.22537 9.39198C6.69383 10.9235 5.83341 13.0008 5.83341 15.1667C5.83341 17.3326 6.69383 19.4098 8.22537 20.9414C9.75692 22.4729 11.8341 23.3334 14.0001 23.3334ZM12.8334 9.33335H15.1667V16.3334H12.8334V9.33335ZM9.33341 1.16669H18.6667V3.50002H9.33341V1.16669Z" fill="#FF9D00"/>
</svg>
