<svg width="21" height="21" viewBox="0 0 21 21" fill="none" xmlns="http://www.w3.org/2000/svg">
<path d="M11.8125 7.875C11.0876 7.875 10.5 7.28738 10.5 6.5625C10.5 5.83762 11.0876 5.25 11.8125 5.25C12.5374 5.25 13.125 5.83762 13.125 6.5625C13.1242 7.28704 12.537 7.87421 11.8125 7.875Z" fill="#C1C0FF"/>
<path d="M16.625 1.75H4.375C2.92701 1.75423 1.75423 2.92701 1.75 4.375V12.1275L5.145 8.7325C6.18404 7.74375 7.81596 7.74375 8.855 8.7325L11.3675 11.2586L12.144 10.4821C13.1708 9.46126 14.8292 9.46126 15.856 10.4821L19.25 13.8761V4.375C19.2458 2.92701 18.073 1.75423 16.625 1.75ZM11.8125 7.875C11.0876 7.875 10.5 7.28738 10.5 6.5625C10.5 5.83762 11.0876 5.25 11.8125 5.25C12.5374 5.25 13.125 5.83762 13.125 6.5625C13.1242 7.28704 12.537 7.87421 11.8125 7.875Z" fill="#A2A1FF"/>
<path d="M8.855 8.73253C7.81596 7.74378 6.18404 7.74378 5.145 8.73253L1.75 12.1275V16.625C1.75423 18.073 2.92702 19.2458 4.375 19.25H16.625C17.3382 19.2497 18.0206 18.9591 18.515 18.445L8.855 8.73253Z" fill="#6563FF"/>
<path d="M19.2502 13.8761L15.8562 10.4821C14.8294 9.4613 13.171 9.4613 12.1443 10.4821L11.3677 11.2586L18.5114 18.4411C18.9857 17.9557 19.251 17.3037 19.2502 16.625V13.8761Z" fill="#C1C0FF"/>
</svg>
